<svg width="15" height="13" viewBox="0 0 15 13" fill="none" xmlns="http://www.w3.org/2000/svg">
<path d="M1 10.8434V4.37873C1 3.66466 1.57886 3.0858 2.29293 3.0858H2.61616C3.02312 3.0858 3.40633 2.89419 3.65051 2.56863L5.08566 0.65509C5.15891 0.557423 5.27388 0.499939 5.39596 0.499939H9.53333C9.65545 0.499939 9.77039 0.557423 9.84364 0.65509L11.2788 2.56863C11.523 2.89419 11.9062 3.0858 12.3131 3.0858H12.6364C13.3504 3.0858 13.9293 3.66466 13.9293 4.37873V10.8434C13.9293 11.5575 13.3504 12.1363 12.6364 12.1363H2.29293C1.57886 12.1363 1 11.5575 1 10.8434Z" stroke="white" stroke-linecap="round" stroke-linejoin="round"/>
<path d="M7.46452 9.55047C8.89263 9.55047 10.0504 8.39272 10.0504 6.96461C10.0504 5.53651 8.89263 4.37875 7.46452 4.37875C6.03639 4.37875 4.87866 5.53651 4.87866 6.96461C4.87866 8.39272 6.03639 9.55047 7.46452 9.55047Z" stroke="white" stroke-linecap="round" stroke-linejoin="round"/>
</svg>
