<svg width="34" height="43" viewBox="0 0 34 43" fill="none" xmlns="http://www.w3.org/2000/svg">
<path d="M33 17C33 25.8366 17 41 17 41C17 41 1 25.8366 1 17C1 8.16344 8.16344 1 17 1C25.8366 1 33 8.16344 33 17Z" fill="#282828" stroke="#09B5C1" stroke-width="2"/>
<path d="M23.4 17.9777V8.19995L14.6 9.97773V19.7555" stroke="#09B5C1" stroke-width="2" stroke-linecap="round" stroke-linejoin="round"/>
<path d="M21 22.4222H21.8C22.6836 22.4222 23.4 21.6263 23.4 20.6444V17.9778H21C20.1163 17.9778 19.4 18.7737 19.4 19.7556V20.6444C19.4 21.6263 20.1163 22.4222 21 22.4222Z" stroke="#09B5C1" stroke-width="2" stroke-linecap="round" stroke-linejoin="round"/>
<path d="M12.2 24.1999H13C13.8836 24.1999 14.6 23.404 14.6 22.4222V19.7555H12.2C11.3163 19.7555 10.6 20.5514 10.6 21.5333V22.4222C10.6 23.404 11.3163 24.1999 12.2 24.1999Z" stroke="#09B5C1" stroke-width="2" stroke-linecap="round" stroke-linejoin="round"/>
</svg>
